HIERARCHY
ROOT Hips
{
	OFFSET 0.00000 0.00000 0.00000
	CHANNELS 6 Xposition Yposition Zposition Zrotation Yrotation Xrotation 
	JOINT LHipJoint
	{
		OFFSET 0 0 0
		CHANNELS 3 Zrotation Yrotation Xrotation
		JOINT LeftHip
		{
			OFFSET 1.53139 -1.83434 0.76626
			CHANNELS 3 Zrotation Yrotation Xrotation
			JOINT LeftKnee
			{
				OFFSET 2.56112 -7.03663 0.00000
				CHANNELS 3 Zrotation Yrotation Xrotation
				JOINT LeftAnkle
				{
					OFFSET 2.59983 -7.14299 0.00000
					CHANNELS 3 Zrotation Yrotation Xrotation
					JOINT LeftToe
					{
						OFFSET 0.13742 -0.37757 2.00054
						CHANNELS 3 Zrotation Yrotation Xrotation
						End Site
						{
							OFFSET 0.00000 -0.00000 1.02897
						}
					}
				}
			}
		}
	}
	JOINT RHipJoint
	{
		OFFSET 0 0 0
		CHANNELS 3 Zrotation Yrotation Xrotation
		JOINT RightHip
		{
			OFFSET -1.40122 -1.83435 0.76627
			CHANNELS 3 Zrotation Yrotation Xrotation
			JOINT RightKnee
			{
				OFFSET -2.54052 -6.98003 0.00000
				CHANNELS 3 Zrotation Yrotation Xrotation
				JOINT RightAnkle
				{
					OFFSET -2.63179 -7.23079 0.00000
					CHANNELS 3 Zrotation Yrotation Xrotation
					JOINT RightToe
					{
						OFFSET -0.24131 -0.66299 2.03908
						CHANNELS 3 Zrotation Yrotation Xrotation
						End Site
						{
							OFFSET -0.00000 -0.00000 1.07391
						}
					}
				}
			}
		}
	}
	JOINT lowerback
	{
		OFFSET 0 0 0
		CHANNELS 3 Zrotation Yrotation Xrotation
		JOINT Chest
		{
			OFFSET 0.01174 2.10302 -0.29778
			CHANNELS 3 Zrotation Yrotation Xrotation
			JOINT Chest2
			{
				OFFSET 0.00772 2.13227 -0.01247
				CHANNELS 3 Zrotation Yrotation Xrotation
				JOINT lowerneck
				{
					OFFSET 0 0 0
					CHANNELS 3 Zrotation Yrotation Xrotation
					JOINT Neck
					{
						OFFSET -0.09219 1.60848 0.31481
						CHANNELS 3 Zrotation Yrotation Xrotation
						JOINT Head
						{
							OFFSET 0.13974 1.65456 -0.31134
							CHANNELS 3 Zrotation Yrotation Xrotation
							End Site
							{
								OFFSET 0.04742 1.69515 -0.14578
							}
						}
					}
				}
				JOINT LeftCollar
				{
					OFFSET 0 0 0
					CHANNELS 3 Zrotation Yrotation Xrotation
					JOINT LeftShoulder
					{
						OFFSET 3.24909 1.02882 -0.23993
CHANNELS 3 Zrotation Xrotation Yrotation
						JOINT LeftElbow
						{
OFFSET 0 -5.329550 -0.000000
CHANNELS 3 Zrotation Xrotation Yrotation
							JOINT LeftWrist
							{
OFFSET 0 -3.692320 -0.000000
CHANNELS 3 Zrotation Xrotation Yrotation
								JOINT lhand
								{
									OFFSET 0 0 0
CHANNELS 3 Zrotation Xrotation Yrotation
									JOINT LFingers
									{
OFFSET 0 -0.536600 -0.000000
CHANNELS 3 Zrotation Xrotation Yrotation
										End Site
										{
OFFSET 0 -0.432620 -0.000000
										}
									}
								}
								JOINT LThumb
								{
OFFSET 0 0.000000 0.000000
CHANNELS 3 Zrotation Xrotation Yrotation
									End Site
									{
OFFSET 0 -0.439220 0.439220
									}
								}
							}
						}
					}
				}
				JOINT RightCollar
				{
					OFFSET 0 0 0
					CHANNELS 3 Zrotation Yrotation Xrotation
					JOINT RightShoulder
					{
						OFFSET -3.21387 0.93002 -0.34594
CHANNELS 3 Zrotation Xrotation Yrotation
						JOINT RightElbow
						{
OFFSET 0 -5.234310 0.000000
CHANNELS 3 Zrotation Xrotation Yrotation
							JOINT RightWrist
							{
OFFSET 0 -3.553010 -0.000000
CHANNELS 3 Zrotation Xrotation Yrotation
								JOINT rhand
								{
									OFFSET 0 0 0
CHANNELS 3 Zrotation Xrotation Yrotation
									JOINT RFingers
									{
OFFSET 0 -0.772520 -0.000000
CHANNELS 3 Zrotation Xrotation Yrotation
										End Site
										{
OFFSET 0 -0.622830 -0.000000
										}
									}
								}
								JOINT RThumb
								{
OFFSET 0 0.000000 0.000000
CHANNELS 3 Zrotation Xrotation Yrotation
									End Site
									{
OFFSET 0 -0.632340 0.632340
									}
								}
							}
						}
					}
				}
			}
		}
	}
}
MOTION
Frames: 12
Frame Time: 0.008333333333333333
7.587432 18.065244 6.209453 181.138267 23.803476 -180.826088 0.000000 0.000000 0.000000 -31.088482 -2.941445 -1.937745 1.659317 8.117078 23.070325 -0.164577 -8.303864 -1.430312 0.018394 0.857228 2.356111 0.000000 0.000000 0.000000 13.465310 1.357522 -17.585939 -10.387131 -17.621734 60.774402 -0.102042 -3.545351 -8.387150 -0.002188 -0.209763 0.576198 1.006295 3.943071 12.050986 -0.823255 5.537537 2.564147 -2.258362 2.821413 -3.866122 -3.143586 8.189398 -16.479928 1.591737 22.837759 44.555082 6.484885 10.442363 19.470242 0.000000 0.000000 0.000000 3.992512 3.637423 -19.733979 21.226847 -32.092220 6.170036 19.468536 12.210149 -26.665648 0.000000 0.000000 0.000000 -7.125000 0.000000 0.000000 -11.815458 57.629727 3.687829 0.000000 0.000000 0.000000 -6.922838 3.590242 8.600788 -20.617766 -31.379370 -5.849673 -11.161871 5.007430 -8.447446 0.000000 0.000000 0.000000 7.125000 0.000000 0.000000 11.325998 21.434697 6.529687
7.532067 18.080068 6.259674 181.326676 23.858169 -180.911801 0.000000 0.000000 0.000000 -30.977843 -2.972368 -1.880694 1.630145 8.048902 22.862674 -0.163822 -8.174177 -1.222334 0.008957 0.601961 1.654213 0.000000 0.000000 0.000000 13.604150 -0.176666 -17.038798 -10.507898 -17.685654 61.172757 -0.064053 -3.931552 -7.764811 -0.005529 -0.471498 1.295662 1.347237 3.741329 12.044199 -0.782058 5.311029 2.545646 -2.372112 2.704782 -3.864811 -3.151932 8.187356 -16.632789 1.721426 22.742810 44.669928 6.555542 10.394677 19.555455 0.000000 0.000000 0.000000 3.872643 4.152302 -19.451385 21.092586 -31.936237 6.098895 19.456625 12.316177 -26.569638 0.000000 0.000000 0.000000 -7.125000 0.000000 0.000000 -11.777364 57.531157 3.647628 0.000000 0.000000 0.000000 -6.963039 3.336240 8.732771 -20.724734 -31.505524 -5.905404 -11.292299 4.865895 -8.050015 0.000000 0.000000 0.000000 7.125000 0.000000 0.000000 11.255655 21.827197 6.385285
7.477518 18.100410 6.310771 181.510377 24.353703 -180.927162 0.000000 0.000000 0.000000 -30.835750 -2.811739 -2.071310 1.599710 7.977004 22.644237 -0.156359 -7.895730 -1.023963 0.014035 0.752937 2.069210 0.000000 0.000000 0.000000 13.767241 -1.366917 -16.557414 -10.600540 -17.733949 61.477304 -0.020875 -4.374259 -6.960678 -0.005294 -0.469259 1.289480 1.600436 3.716499 11.976983 -0.740163 5.303675 2.491762 -2.464904 2.695323 -3.865598 -3.137581 8.212234 -16.587462 1.792490 22.635468 44.637464 6.548376 10.363704 19.508470 0.000000 0.000000 0.000000 3.748296 4.685444 -19.207590 20.983865 -31.809456 6.041471 19.553568 12.543628 -26.561536 0.000000 0.000000 0.000000 -7.125000 0.000000 0.000000 -11.670090 57.544084 3.617389 0.000000 0.000000 0.000000 -6.993839 3.134492 8.878018 -20.837901 -31.638498 -5.964697 -11.466527 4.642038 -7.727429 0.000000 0.000000 0.000000 7.125000 0.000000 0.000000 11.149574 22.143971 6.240764
7.423038 18.123426 6.362389 181.664250 25.160846 -180.917621 0.000000 0.000000 0.000000 -30.718465 -2.556505 -2.390599 1.571985 7.910929 22.443896 -0.145010 -7.492610 -0.759349 0.038513 1.222284 3.361070 0.000000 0.000000 0.000000 13.885856 -2.294830 -16.082659 -10.667284 -17.768374 61.696199 0.023437 -4.873270 -6.043659 -0.015698 -0.761190 2.092155 1.769577 3.803457 11.894961 -0.698098 5.431965 2.415815 -2.530049 2.752415 -3.882177 -3.088424 8.257430 -16.459582 1.757096 22.595040 44.550330 6.487826 10.359098 19.433240 0.000000 0.000000 0.000000 3.598127 5.203791 -18.979115 20.825155 -31.623470 5.958119 19.963067 12.872686 -26.450520 0.000000 0.000000 0.000000 -7.125000 0.000000 0.000000 -11.176702 57.521648 3.456220 0.000000 0.000000 0.000000 -7.037603 2.956413 8.979217 -20.953795 -31.774266 -6.025663 -11.504863 4.465252 -7.559811 0.000000 0.000000 0.000000 7.125000 0.000000 0.000000 11.132175 22.310340 6.187294
7.368878 18.142338 6.415655 181.728559 26.033998 -180.949302 0.000000 0.000000 0.000000 -30.703860 -2.313690 -2.692858 1.548043 7.853367 22.269590 -0.136780 -7.075432 -0.254529 0.109565 2.047442 5.639841 0.000000 0.000000 0.000000 13.878544 -3.196429 -15.599327 -10.715205 -17.792858 61.853078 0.057889 -5.238398 -5.100131 -0.033725 -1.170203 3.217387 1.819982 3.917254 11.846508 -0.660647 5.581987 2.338309 -2.540158 2.821040 -3.927983 -3.068768 8.290749 -16.422194 1.747651 22.596054 44.557777 6.476122 10.358026 19.432638 0.000000 0.000000 0.000000 3.386132 5.716814 -18.631408 20.642819 -31.408843 5.862772 20.285340 13.205507 -26.348766 0.000000 0.000000 0.000000 -7.125000 0.000000 0.000000 -10.780945 57.489591 3.323104 0.000000 0.000000 0.000000 -7.097971 2.761913 8.987857 -21.062246 -31.900839 -6.082844 -11.422052 4.344421 -7.597217 0.000000 0.000000 0.000000 7.125000 0.000000 0.000000 11.189611 22.275537 6.229640
7.315600 18.154830 6.470113 181.712422 26.879487 -180.999205 0.000000 0.000000 0.000000 -30.780771 -2.106736 -2.977590 1.526667 7.801469 22.112655 -0.131179 -6.706874 0.354201 0.194155 2.832444 7.813001 0.000000 0.000000 0.000000 13.761888 -4.161979 -15.145115 -10.749507 -17.810284 61.965289 0.075951 -5.329584 -4.176929 -0.042727 -1.332288 3.663600 1.767728 4.033502 11.787497 -0.628068 5.722892 2.268088 -2.495865 2.886652 -3.970092 -3.093231 8.293148 -16.508779 1.822902 22.575569 44.675815 6.533836 10.338229 19.511547 0.000000 0.000000 0.000000 3.136730 6.231962 -18.215643 20.485323 -31.222536 5.780828 20.307944 13.427962 -26.411173 0.000000 0.000000 0.000000 -7.125000 0.000000 0.000000 -10.789014 57.557346 3.343575 0.000000 0.000000 0.000000 -7.172912 2.548576 8.998080 -21.164960 -32.020279 -6.137182 -11.397061 4.211454 -7.820273 0.000000 0.000000 0.000000 7.125000 0.000000 0.000000 11.194216 22.053164 6.289843
7.262864 18.163755 6.523838 181.698865 27.722321 -180.992013 0.000000 0.000000 0.000000 -30.856028 -1.902787 -3.321496 1.506268 7.751467 21.961743 -0.123407 -6.392574 0.747531 0.207952 2.918465 8.053017 0.000000 0.000000 0.000000 13.634428 -5.132677 -14.747286 -10.771397 -17.821399 62.036921 0.079709 -5.181862 -3.300149 -0.033715 -1.182449 3.250967 1.729109 4.157144 11.639226 -0.609189 5.872959 2.205127 -2.466139 2.957882 -3.952514 -3.108190 8.282810 -16.615283 1.919360 22.503738 44.785317 6.590693 10.300481 19.588397 0.000000 0.000000 0.000000 2.937745 6.729513 -17.918202 20.340605 -31.050402 5.706042 20.299658 13.531142 -26.533026 0.000000 0.000000 0.000000 -7.125000 0.000000 0.000000 -10.860199 57.678201 3.397705 0.000000 0.000000 0.000000 -7.221672 2.330122 9.092907 -21.269098 -32.141085 -6.192518 -11.533806 4.067512 -8.096612 0.000000 0.000000 0.000000 7.125000 0.000000 0.000000 11.079401 21.772241 6.295422
7.209187 18.170779 6.577363 181.741905 28.556215 -180.931033 0.000000 0.000000 0.000000 -30.873434 -1.676247 -3.705064 1.486848 7.703543 21.817285 -0.115270 -6.132280 0.936285 0.116395 2.162661 5.956647 0.000000 0.000000 0.000000 13.550114 -6.051158 -14.362042 -10.782602 -17.827005 62.073446 0.076889 -4.956157 -2.507910 -0.025017 -1.020746 2.805835 1.832604 4.266510 11.434788 -0.633666 6.019226 2.151075 -2.552910 3.027225 -3.875961 -3.093132 8.303238 -16.669148 2.022037 22.407384 44.806941 6.619409 10.265578 19.596087 0.000000 0.000000 0.000000 2.849976 7.184553 -17.713398 20.136132 -30.805949 5.600951 20.551602 13.696223 -26.360807 0.000000 0.000000 0.000000 -7.125000 0.000000 0.000000 -10.502715 57.559798 3.253845 0.000000 0.000000 0.000000 -7.141361 2.081724 9.080825 -21.367613 -32.254915 -6.244956 -11.648035 4.070885 -8.221734 0.000000 0.000000 0.000000 7.125000 0.000000 0.000000 10.990304 21.642968 6.275910
7.154145 18.174110 6.635384 181.824292 29.390431 -180.883705 0.000000 0.000000 0.000000 -30.851172 -1.483513 -4.060206 1.470722 7.663489 21.696596 -0.105366 -5.814650 1.183096 0.018494 0.811509 2.230900 0.000000 0.000000 0.000000 13.525222 -6.860833 -13.929421 -10.780235 -17.825865 62.065646 0.071980 -4.755184 -1.885184 -0.032379 -1.160892 3.191653 1.948384 4.372825 11.309367 -0.634455 6.166296 2.103045 -2.628198 3.096728 -3.837309 -3.137656 8.322783 -16.748467 2.164461 22.335602 44.864699 6.685144 10.234288 19.615018 0.000000 0.000000 0.000000 2.710093 7.618314 -17.317238 19.943223 -30.573862 5.502524 20.490776 14.015080 -26.366854 0.000000 0.000000 0.000000 -7.125000 0.000000 0.000000 -10.570904 57.552611 3.273478 0.000000 0.000000 0.000000 -7.050209 1.801607 9.023855 -21.453682 -32.354131 -6.290971 -11.882313 4.086224 -8.220945 0.000000 0.000000 0.000000 7.125000 0.000000 0.000000 10.822111 21.635431 6.178184
7.098029 18.173887 6.697538 181.871145 30.233571 -180.838028 0.000000 0.000000 0.000000 -30.861965 -1.387135 -4.419645 1.456743 7.628641 21.591609 -0.091826 -5.394054 1.360575 0.026453 -0.785738 -2.160164 0.000000 0.000000 0.000000 13.546773 -7.501431 -13.493247 -10.749855 -17.810512 61.966613 0.070791 -4.734610 -1.311380 -0.031974 -1.154604 3.174364 1.973346 4.501452 11.246750 -0.618220 6.333199 2.029727 -2.645557 3.174909 -3.869477 -3.151604 8.350344 -16.741761 2.218877 22.287124 44.855852 6.694437 10.215477 19.592466 0.000000 0.000000 0.000000 2.550542 8.020754 -16.938762 19.797914 -30.397969 5.428724 20.096176 14.215764 -27.008965 0.000000 0.000000 0.000000 -7.125000 0.000000 0.000000 -11.330522 58.110914 3.667708 0.000000 0.000000 0.000000 -7.051942 1.622473 9.125963 -21.585614 -32.505490 -6.361776 -12.111715 4.005371 -8.338328 0.000000 0.000000 0.000000 7.125000 0.000000 0.000000 10.651191 21.509143 6.108225
7.041637 18.179704 6.758185 181.958015 31.037120 -180.765042 0.000000 0.000000 0.000000 -30.825352 -1.348888 -4.771403 1.444512 7.597904 21.499311 -0.077925 -4.951474 1.452884 0.055656 -1.500306 -4.126907 0.000000 0.000000 0.000000 13.611622 -8.204525 -13.069578 -10.682353 -17.776094 61.745732 0.062025 -4.490783 -0.762822 -0.010855 -0.546597 1.502412 2.047835 4.605566 11.189064 -0.598002 6.473121 1.937869 -2.683793 3.238012 -3.920135 -3.112181 8.399827 -16.646907 2.187835 22.284266 44.794543 6.651532 10.220404 19.538793 0.000000 0.000000 0.000000 2.391767 8.371677 -16.525232 19.562292 -30.110989 5.310169 19.882077 14.064053 -26.823728 0.000000 0.000000 0.000000 -7.125000 0.000000 0.000000 -11.459219 57.878497 3.643609 0.000000 0.000000 0.000000 -7.055368 1.509763 9.341662 -21.757506 -32.701689 -6.454396 -12.236591 3.824368 -8.400110 0.000000 0.000000 0.000000 7.125000 0.000000 0.000000 10.558332 21.442427 6.069468
6.985657 18.188630 6.817934 182.065730 31.908265 -180.679491 0.000000 0.000000 0.000000 -30.767959 -1.326281 -5.130988 1.434186 7.571927 21.421208 -0.061382 -4.379529 1.431462 0.028219 -0.754309 -2.074997 0.000000 0.000000 0.000000 13.685603 -8.892222 -12.631442 -10.578411 -17.722407 61.404586 0.044613 -3.862555 -0.287834 -0.012022 0.397349 -1.092295 2.156485 4.746971 11.128528 -0.593854 6.666269 1.848529 -2.763624 3.327558 -3.957501 -3.063044 8.441514 -16.508682 2.148007 22.249983 44.694217 6.586788 10.219597 19.452913 0.000000 0.000000 0.000000 2.305428 8.705591 -16.233873 19.289630 -29.776436 5.174107 19.707949 13.916443 -26.801189 0.000000 0.000000 0.000000 -7.125000 0.000000 0.000000 -11.632918 57.817495 3.682904 0.000000 0.000000 0.000000 -7.034245 1.349676 9.489077 -21.849081 -32.805994 -6.503836 -12.361903 3.671855 -8.384112 0.000000 0.000000 0.000000 7.125000 0.000000 0.000000 10.469272 21.453728 6.013846
